<mxfile host="65bd71144e">
    <diagram id="YJa1YVeCBQMnrFL9bhSD" name="第 1 页">
        <mxGraphModel dx="932" dy="514" grid="0" gridSize="10" guides="0" tooltips="1" connect="1" arrows="1" fold="1" page="1" pageScale="1" pageWidth="2339" pageHeight="3300" background="#FFFFFF" math="0" shadow="0">
            <root>
                <mxCell id="0"/>
                <mxCell id="1" parent="0"/>
                <mxCell id="88" value="" style="shape=callout;whiteSpace=wrap;html=1;perimeter=calloutPerimeter;fontSize=15;fontColor=#78677A;fillColor=#F9F6F1;rotation=-180;" vertex="1" parent="1">
                    <mxGeometry x="283" y="663" width="360" height="187" as="geometry"/>
                </mxCell>
                <mxCell id="20" value="Table1&lt;br&gt;key range: abandon-awake" style="rounded=1;whiteSpace=wrap;html=1;fontSize=16;fillColor=#DECECE;" parent="1" vertex="1">
                    <mxGeometry x="140" y="200" width="135" height="60" as="geometry"/>
                </mxCell>
                <mxCell id="52" value="Table2&lt;br&gt;key: baby, brow, edge" style="rounded=1;whiteSpace=wrap;html=1;fontSize=16;fillColor=#DECECE;" parent="1" vertex="1">
                    <mxGeometry x="306" y="200" width="314" height="60" as="geometry"/>
                </mxCell>
                <mxCell id="53" value="Table3&lt;br&gt;key range: operate-zealot" style="rounded=1;whiteSpace=wrap;html=1;fontSize=16;fillColor=#DECECE;" parent="1" vertex="1">
                    <mxGeometry x="640" y="200" width="133" height="60" as="geometry"/>
                </mxCell>
                <mxCell id="54" value="Table4&amp;nbsp;&lt;br&gt;key range: abandon-ace" style="rounded=1;whiteSpace=wrap;html=1;fontSize=16;fillColor=#CEABC5;" parent="1" vertex="1">
                    <mxGeometry x="140" y="290" width="145" height="60" as="geometry"/>
                </mxCell>
                <mxCell id="55" value="Table5&lt;br&gt;key: bean, control, dog" style="rounded=1;whiteSpace=wrap;html=1;fontSize=16;fillColor=#CEABC5;" parent="1" vertex="1">
                    <mxGeometry x="310" y="290" width="310" height="60" as="geometry"/>
                </mxCell>
                <mxCell id="56" value="Table6&lt;br&gt;key range: &lt;br&gt;edge-jealous" style="rounded=1;whiteSpace=wrap;html=1;fontSize=16;fillColor=#CEABC5;" parent="1" vertex="1">
                    <mxGeometry x="647" y="290" width="129" height="60" as="geometry"/>
                </mxCell>
                <mxCell id="69" value="&lt;span style=&quot;font-size: 13px;&quot;&gt;Where is&amp;nbsp;&lt;/span&gt;&lt;b&gt;Bean&lt;/b&gt;&lt;span style=&quot;font-size: 13px;&quot;&gt;?&lt;/span&gt;" style="ellipse;shape=cloud;whiteSpace=wrap;html=1;fontSize=14;fontColor=#78677A;fillColor=#F9F6F1;" vertex="1" parent="1">
                    <mxGeometry x="353" y="101" width="159" height="88" as="geometry"/>
                </mxCell>
                <mxCell id="70" value="&lt;font style=&quot;font-size: 17px;&quot;&gt;Level 1&lt;/font&gt;" style="text;html=1;strokeColor=none;fillColor=none;align=center;verticalAlign=middle;whiteSpace=wrap;rounded=0;fontSize=14;fontColor=#78677A;" vertex="1" parent="1">
                    <mxGeometry x="60" y="217" width="60" height="30" as="geometry"/>
                </mxCell>
                <mxCell id="71" value="&lt;font style=&quot;font-size: 17px;&quot;&gt;Level 2&lt;/font&gt;" style="text;html=1;strokeColor=none;fillColor=none;align=center;verticalAlign=middle;whiteSpace=wrap;rounded=0;fontSize=14;fontColor=#78677A;" vertex="1" parent="1">
                    <mxGeometry x="59" y="303" width="60" height="30" as="geometry"/>
                </mxCell>
                <mxCell id="74" value="Here?" style="ellipse;shape=cloud;whiteSpace=wrap;html=1;fontSize=15;fontColor=#78677A;fillColor=#F9F6F1;rotation=-20;" vertex="1" parent="1">
                    <mxGeometry x="295" y="190" width="82" height="48" as="geometry"/>
                </mxCell>
                <mxCell id="75" value="No! Here!" style="ellipse;shape=cloud;whiteSpace=wrap;html=1;fontSize=15;fontColor=#78677A;fillColor=#F9F6F1;rotation=15;" vertex="1" parent="1">
                    <mxGeometry x="511" y="271" width="82" height="48" as="geometry"/>
                </mxCell>
                <mxCell id="76" value="Table1&lt;br&gt;key range: abandon-awake" style="rounded=1;whiteSpace=wrap;html=1;fontSize=16;fillColor=#DECECE;" vertex="1" parent="1">
                    <mxGeometry x="150" y="520" width="135" height="60" as="geometry"/>
                </mxCell>
                <mxCell id="77" value="Table2&lt;br&gt;key: baby, brow, edge" style="rounded=1;whiteSpace=wrap;html=1;fontSize=16;fillColor=#DECECE;" vertex="1" parent="1">
                    <mxGeometry x="311" y="709" width="314" height="60" as="geometry"/>
                </mxCell>
                <mxCell id="78" value="Table3&lt;br&gt;key range: operate-zealot" style="rounded=1;whiteSpace=wrap;html=1;fontSize=16;fillColor=#DECECE;" vertex="1" parent="1">
                    <mxGeometry x="317" y="520" width="133" height="60" as="geometry"/>
                </mxCell>
                <mxCell id="79" value="Table4&amp;nbsp;&lt;br&gt;key range: abandon-ace" style="rounded=1;whiteSpace=wrap;html=1;fontSize=16;fillColor=#CEABC5;" vertex="1" parent="1">
                    <mxGeometry x="150" y="610" width="145" height="60" as="geometry"/>
                </mxCell>
                <mxCell id="80" value="Table5&lt;br&gt;key range: bean, control, dog" style="rounded=1;whiteSpace=wrap;html=1;fontSize=16;fillColor=#CEABC5;" vertex="1" parent="1">
                    <mxGeometry x="311" y="776" width="314" height="60" as="geometry"/>
                </mxCell>
                <mxCell id="81" value="Table6&lt;br&gt;key range: &lt;br&gt;edge-jealous" style="rounded=1;whiteSpace=wrap;html=1;fontSize=16;fillColor=#CEABC5;" vertex="1" parent="1">
                    <mxGeometry x="657" y="610" width="129" height="60" as="geometry"/>
                </mxCell>
                <mxCell id="82" value="&lt;span style=&quot;font-size: 13px;&quot;&gt;Where is&amp;nbsp;&lt;/span&gt;&lt;b&gt;Bean&lt;/b&gt;&lt;span style=&quot;font-size: 13px;&quot;&gt;?&lt;/span&gt;" style="ellipse;shape=cloud;whiteSpace=wrap;html=1;fontSize=14;fontColor=#78677A;fillColor=#F9F6F1;" vertex="1" parent="1">
                    <mxGeometry x="363" y="421" width="159" height="88" as="geometry"/>
                </mxCell>
                <mxCell id="83" value="&lt;font style=&quot;font-size: 17px;&quot;&gt;Level 1&lt;/font&gt;" style="text;html=1;strokeColor=none;fillColor=none;align=center;verticalAlign=middle;whiteSpace=wrap;rounded=0;fontSize=14;fontColor=#78677A;" vertex="1" parent="1">
                    <mxGeometry x="70" y="537" width="60" height="30" as="geometry"/>
                </mxCell>
                <mxCell id="84" value="&lt;font style=&quot;font-size: 17px;&quot;&gt;Level 2&lt;/font&gt;" style="text;html=1;strokeColor=none;fillColor=none;align=center;verticalAlign=middle;whiteSpace=wrap;rounded=0;fontSize=14;fontColor=#78677A;" vertex="1" parent="1">
                    <mxGeometry x="69" y="623" width="60" height="30" as="geometry"/>
                </mxCell>
                <mxCell id="87" value="Table7&lt;br&gt;key range: baby, bean, brow, control, dog, edge" style="rounded=1;whiteSpace=wrap;html=1;fontSize=16;fillColor=#CEABC5;" vertex="1" parent="1">
                    <mxGeometry x="314" y="611" width="310" height="60" as="geometry"/>
                </mxCell>
                <mxCell id="89" value="Here!" style="ellipse;shape=cloud;whiteSpace=wrap;html=1;fontSize=15;fontColor=#78677A;fillColor=#F9F6F1;rotation=15;" vertex="1" parent="1">
                    <mxGeometry x="515" y="571" width="82" height="48" as="geometry"/>
                </mxCell>
            </root>
        </mxGraphModel>
    </diagram>
</mxfile>